<mxfile host="65bd71144e">
    <diagram id="C5RBs43oDa-KdzZeNtuy" name="Page-1">
        <mxGraphModel dx="1130" dy="787" grid="1" gridSize="10" guides="1" tooltips="1" connect="1" arrows="1" fold="1" page="1" pageScale="1" pageWidth="827" pageHeight="1169" math="0" shadow="0">
            <root>
                <mxCell id="WIyWlLk6GJQsqaUBKTNV-0"/>
                <mxCell id="WIyWlLk6GJQsqaUBKTNV-1" parent="WIyWlLk6GJQsqaUBKTNV-0"/>
                <mxCell id="PVLHYLcrS0TtMWN3BAI1-2" value="" style="edgeStyle=orthogonalEdgeStyle;rounded=0;orthogonalLoop=1;jettySize=auto;html=1;" parent="WIyWlLk6GJQsqaUBKTNV-1" source="PVLHYLcrS0TtMWN3BAI1-0" target="PVLHYLcrS0TtMWN3BAI1-1" edge="1">
                    <mxGeometry relative="1" as="geometry"/>
                </mxCell>
                <mxCell id="PVLHYLcrS0TtMWN3BAI1-0" value="User" style="shape=umlActor;verticalLabelPosition=bottom;verticalAlign=top;html=1;outlineConnect=0;" parent="WIyWlLk6GJQsqaUBKTNV-1" vertex="1">
                    <mxGeometry x="400" y="100" width="30" height="60" as="geometry"/>
                </mxCell>
                <mxCell id="PVLHYLcrS0TtMWN3BAI1-20" value="" style="edgeStyle=orthogonalEdgeStyle;rounded=0;orthogonalLoop=1;jettySize=auto;html=1;" parent="WIyWlLk6GJQsqaUBKTNV-1" source="PVLHYLcrS0TtMWN3BAI1-1" target="PVLHYLcrS0TtMWN3BAI1-13" edge="1">
                    <mxGeometry relative="1" as="geometry"/>
                </mxCell>
                <mxCell id="PVLHYLcrS0TtMWN3BAI1-1" value="Database page" style="rounded=1;whiteSpace=wrap;html=1;" parent="WIyWlLk6GJQsqaUBKTNV-1" vertex="1">
                    <mxGeometry x="355" y="220" width="120" height="60" as="geometry"/>
                </mxCell>
                <mxCell id="PVLHYLcrS0TtMWN3BAI1-17" value="" style="edgeStyle=orthogonalEdgeStyle;rounded=0;orthogonalLoop=1;jettySize=auto;html=1;" parent="WIyWlLk6GJQsqaUBKTNV-1" source="PVLHYLcrS0TtMWN3BAI1-13" target="PVLHYLcrS0TtMWN3BAI1-16" edge="1">
                    <mxGeometry relative="1" as="geometry"/>
                </mxCell>
                <mxCell id="PVLHYLcrS0TtMWN3BAI1-13" value="Req sent to server to return current database" style="shape=cylinder3;whiteSpace=wrap;html=1;boundedLbl=1;backgroundOutline=1;size=15;" parent="WIyWlLk6GJQsqaUBKTNV-1" vertex="1">
                    <mxGeometry x="360" y="330" width="110" height="130" as="geometry"/>
                </mxCell>
                <mxCell id="PVLHYLcrS0TtMWN3BAI1-19" value="" style="edgeStyle=orthogonalEdgeStyle;rounded=0;orthogonalLoop=1;jettySize=auto;html=1;" parent="WIyWlLk6GJQsqaUBKTNV-1" source="PVLHYLcrS0TtMWN3BAI1-16" target="PVLHYLcrS0TtMWN3BAI1-18" edge="1">
                    <mxGeometry relative="1" as="geometry"/>
                </mxCell>
                <mxCell id="PVLHYLcrS0TtMWN3BAI1-16" value="Database displayed" style="rounded=1;whiteSpace=wrap;html=1;" parent="WIyWlLk6GJQsqaUBKTNV-1" vertex="1">
                    <mxGeometry x="355" y="500" width="120" height="60" as="geometry"/>
                </mxCell>
                <mxCell id="PVLHYLcrS0TtMWN3BAI1-22" value="" style="edgeStyle=orthogonalEdgeStyle;rounded=0;orthogonalLoop=1;jettySize=auto;html=1;" parent="WIyWlLk6GJQsqaUBKTNV-1" source="PVLHYLcrS0TtMWN3BAI1-18" target="PVLHYLcrS0TtMWN3BAI1-21" edge="1">
                    <mxGeometry relative="1" as="geometry"/>
                </mxCell>
                <mxCell id="PVLHYLcrS0TtMWN3BAI1-18" value="User adds, deletes, or edits client data.&amp;nbsp;" style="rounded=1;whiteSpace=wrap;html=1;" parent="WIyWlLk6GJQsqaUBKTNV-1" vertex="1">
                    <mxGeometry x="225" y="660" width="120" height="60" as="geometry"/>
                </mxCell>
                <mxCell id="PVLHYLcrS0TtMWN3BAI1-21" value="Updates sent to server" style="rounded=1;whiteSpace=wrap;html=1;" parent="WIyWlLk6GJQsqaUBKTNV-1" vertex="1">
                    <mxGeometry x="225" y="760" width="120" height="60" as="geometry"/>
                </mxCell>
            </root>
        </mxGraphModel>
    </diagram>
</mxfile>